<?xml version="1.0" encoding="UTF-8"?>
<svg xmlns="http://www.w3.org/2000/svg" xmlns:xlink="http://www.w3.org/1999/xlink" width="269.822mm" height="257.791mm" viewBox="351.000000 -937.790649 269.822021 257.790649">
    <path transform="matrix(1.283878,0,0,-1.283878,349.025848,-976.532471)" style="stroke:#000000;stroke-width:0.05mm;fill:none" d="M13.458,-220.169998L14,-220.255997L14.542,-220.169998L14.99276,-219.940002L15.029999,-219.92099L15.417999,-219.533997L15.667,-219.044998L15.751999,-218.503998L15.667,-217.962006L15.417999,-217.472992L15.029999,-217.085999L14.542,-216.837006L14.223999,-216.786545L14,-216.751007L13.458,-216.837006L12.970001,-217.085999L12.582001,-217.472992L12.333,-217.962006L12.247002,-218.503998L12.333,-219.044998L12.582001,-219.533997L12.970001,-219.92099L13.00724,-219.940002L13.458,-220.169998z"/>
    <rect transform="matrix(1,0,0,-1,485.911011,-808.895325)" style="stroke:#000000;stroke-width:0.05mm;fill:none" x="-134.910995" y="-128.89534" width="269.821991" height="257.79068"/>
    <path transform="matrix(-1.283878,0,0,-1.283878,622.796204,-976.532471)" style="stroke:#000000;stroke-width:0.05mm;fill:none" d="M13.458,-220.169998L14,-220.255997L14.542,-220.169998L14.99276,-219.940002L15.029999,-219.92099L15.417999,-219.533997L15.667,-219.044998L15.751999,-218.503998L15.667,-217.962006L15.417999,-217.472992L15.029999,-217.085999L14.542,-216.837006L14.223999,-216.786545L14,-216.751007L13.458,-216.837006L12.970001,-217.085999L12.582001,-217.472992L12.333,-217.962006L12.247002,-218.503998L12.333,-219.044998L12.582001,-219.533997L12.970001,-219.92099L13.00724,-219.940002L13.458,-220.169998z"/>
    <path transform="matrix(-1.283878,0,0,1.283878,622.796204,-641.258179)" style="stroke:#000000;stroke-width:0.05mm;fill:none" d="M13.458,-220.169998L14,-220.255997L14.542,-220.169998L14.99276,-219.940002L15.029999,-219.92099L15.417999,-219.533997L15.667,-219.044998L15.751999,-218.503998L15.667,-217.962006L15.417999,-217.472992L15.029999,-217.085999L14.542,-216.837006L14.223999,-216.786545L14,-216.751007L13.458,-216.837006L12.970001,-217.085999L12.582001,-217.472992L12.333,-217.962006L12.247002,-218.503998L12.333,-219.044998L12.582001,-219.533997L12.970001,-219.92099L13.00724,-219.940002L13.458,-220.169998z"/>
    <path transform="matrix(1.283878,0,0,1.283878,349.025848,-641.258179)" style="stroke:#000000;stroke-width:0.05mm;fill:none" d="M13.458,-220.169998L14,-220.255997L14.542,-220.169998L14.99276,-219.940002L15.029999,-219.92099L15.417999,-219.533997L15.667,-219.044998L15.751999,-218.503998L15.667,-217.962006L15.417999,-217.472992L15.029999,-217.085999L14.542,-216.837006L14.223999,-216.786545L14,-216.751007L13.458,-216.837006L12.970001,-217.085999L12.582001,-217.472992L12.333,-217.962006L12.247002,-218.503998L12.333,-219.044998L12.582001,-219.533997L12.970001,-219.92099L13.00724,-219.940002L13.458,-220.169998z"/>
</svg>
