<?xml version="1.0" encoding="UTF-8"?>
<svg xmlns="http://www.w3.org/2000/svg" xmlns:xlink="http://www.w3.org/1999/xlink" width="177.003mm" height="155.031mm" viewBox="48.896065 -996.132568 177.002747 155.031372">
    <rect transform="matrix(1,0,0,-1,137.39743,-918.616882)" style="stroke:#000000;stroke-width:0.05mm;fill:none" x="-88.501366" y="-77.515656" width="177.002731" height="155.031311"/>
    <circle transform="matrix(1,0,0,-1,56,-989)" style="stroke:#000000;stroke-width:0.05mm;fill:none" r="2" cx="0" cy="0"/>
    <circle transform="matrix(1,0,0,-1,218.771591,-989)" style="stroke:#000000;stroke-width:0.05mm;fill:none" r="2" cx="0" cy="0"/>
    <circle transform="matrix(1,0,0,-1,55.959122,-848.200623)" style="stroke:#000000;stroke-width:0.05mm;fill:none" r="2" cx="0" cy="0"/>
    <circle transform="matrix(1,0,0,-1,218.814301,-848.250244)" style="stroke:#000000;stroke-width:0.05mm;fill:none" r="2" cx="0" cy="0"/>
    <circle transform="matrix(1,0,0,-1,142.359039,-918.616882)" style="stroke:#000000;stroke-width:0.05mm;fill:none" r="2" cx="0" cy="0"/>
    <circle transform="matrix(-0,1,1,0,172.731079,-912.512085)" style="stroke:#000000;stroke-width:0.05mm;fill:none" r="2" cx="0" cy="0"/>
    <circle transform="matrix(-0,1,1,0,172.728271,-891.39502)" style="stroke:#000000;stroke-width:0.05mm;fill:none" r="2" cx="0" cy="0"/>
    <circle transform="matrix(-0,1,1,0,200.222839,-901.844604)" style="stroke:#000000;stroke-width:0.05mm;fill:none" r="2" cx="0" cy="0"/>
    <circle transform="matrix(-0,1,1,0,172.731079,-874.512085)" style="stroke:#000000;stroke-width:0.05mm;fill:none" r="2" cx="0" cy="0"/>
    <circle transform="matrix(-0,1,1,0,172.728271,-853.39502)" style="stroke:#000000;stroke-width:0.05mm;fill:none" r="2" cx="0" cy="0"/>
    <circle transform="matrix(-0,1,1,0,200.222839,-863.844604)" style="stroke:#000000;stroke-width:0.05mm;fill:none" r="2" cx="0" cy="0"/>
    <circle transform="matrix(-0,-1,-1,0,117.844177,-933.420044)" style="stroke:#000000;stroke-width:0.05mm;fill:none" r="2" cx="0" cy="0"/>
    <circle transform="matrix(-0,-1,-1,0,117.443657,-875.109375)" style="stroke:#000000;stroke-width:0.05mm;fill:none" r="2" cx="0" cy="0"/>
    <circle transform="matrix(-0,-1,-1,0,68.286743,-933.101318)" style="stroke:#000000;stroke-width:0.05mm;fill:none" r="2" cx="0" cy="0"/>
    <circle transform="matrix(-0,-1,-1,0,68.333191,-875.145264)" style="stroke:#000000;stroke-width:0.05mm;fill:none" r="2" cx="0" cy="0"/>
    <circle transform="matrix(-0,1,1,0,76.948364,-985.138062)" style="stroke:#000000;stroke-width:0.05mm;fill:none" r="2" cx="0" cy="0"/>
    <circle transform="matrix(-0,1,1,0,76.909973,-956.723694)" style="stroke:#000000;stroke-width:0.05mm;fill:none" r="2" cx="0" cy="0"/>
    <circle transform="matrix(-0,1,1,0,68.745911,-956.672852)" style="stroke:#000000;stroke-width:0.05mm;fill:none" r="2" cx="0" cy="0"/>
    <circle transform="matrix(-0,1,1,0,68.855896,-985.248413)" style="stroke:#000000;stroke-width:0.05mm;fill:none" r="2" cx="0" cy="0"/>
    <path transform="matrix(1,0,0,-1,93.219467,-924.858948)" style="stroke:#000000;stroke-width:0.05mm;fill:none" d="M29.381001,43.343998L30,43.245998L30.618999,43.343998L31.177,43.627998L31.620001,44.070999L31.903999,44.628998L32.001999,45.248001L31.941204,45.632L31.903999,45.866997L31.620001,46.424999L31.177,46.868L30.618999,47.152L30,47.250999L29.381001,47.152L28.823,46.868L28.379999,46.424999L28.096001,45.866997L28.058414,45.632L27.997,45.248001L28.096001,44.628998L28.379999,44.070999L28.823,43.627998L29.381001,43.343998z"/>
    <path transform="matrix(1,0,0,-1,93.219467,-924.858948)" style="stroke:#000000;stroke-width:0.05mm;fill:none" d="M6.381001,43.343998L7,43.245998L7.618999,43.343998L8.176998,43.627998L8.619999,44.070999L8.903999,44.628998L9.001999,45.248001L8.941204,45.632L8.903999,45.866997L8.619999,46.424999L8.176998,46.868L7.618999,47.152L7,47.250999L6.381001,47.152L5.823002,46.868L5.380001,46.424999L5.096001,45.866997L5.058414,45.632L4.997002,45.248001L5.096001,44.628998L5.380001,44.070999L5.823002,43.627998L6.381001,43.343998z"/>
    <circle transform="matrix(-0,1,1,0,153.948364,-985.138062)" style="stroke:#000000;stroke-width:0.05mm;fill:none" r="2" cx="0" cy="0"/>
    <circle transform="matrix(-0,1,1,0,153.909973,-956.723694)" style="stroke:#000000;stroke-width:0.05mm;fill:none" r="2" cx="0" cy="0"/>
    <circle transform="matrix(-0,1,1,0,145.745911,-956.672852)" style="stroke:#000000;stroke-width:0.05mm;fill:none" r="2" cx="0" cy="0"/>
    <circle transform="matrix(-0,1,1,0,145.855896,-985.248413)" style="stroke:#000000;stroke-width:0.05mm;fill:none" r="2" cx="0" cy="0"/>
    <circle transform="matrix(-0,1,1,0,197.072998,-975.988159)" style="stroke:#000000;stroke-width:0.05mm;fill:none" r="2" cx="0" cy="0"/>
    <circle transform="matrix(-0,1,1,0,196.998108,-934.13855)" style="stroke:#000000;stroke-width:0.05mm;fill:none" r="2" cx="0" cy="0"/>
</svg>
